<?xml version="1.0" encoding="UTF-8"?>
<svg width="201px" height="127px" viewBox="0 0 201 127" version="1.1" xmlns="http://www.w3.org/2000/svg" xmlns:xlink="http://www.w3.org/1999/xlink">
    <!-- Generator: Sketch 48.2 (47327) - http://www.bohemiancoding.com/sketch -->
    <title>maestro</title>
    <desc>Created with Sketch.</desc>
    <defs></defs>
    <g id="Page-1" stroke="none" stroke-width="1" fill="none" fill-rule="evenodd">
        <g id="maestro">
            <polygon id="Fill-1" fill="#0C2D5B" points="0.346 126.692 200.158 126.692 200.158 0.298 0.346 0.298"></polygon>
            <path d="M100.245,103.903 C111.264,93.917 118.185,79.493 118.185,63.452 C118.185,47.411 111.264,32.987 100.245,23.002 C90.561,14.224 77.71,8.877 63.61,8.877 C33.469,8.877 9.034,33.311 9.034,63.452 C9.034,93.593 33.469,118.028 63.61,118.028 C77.71,118.028 90.561,112.68 100.245,103.903" id="Fill-2" fill="#0092C7"></path>
            <path d="M100.245,103.903 C111.264,93.917 118.185,79.493 118.185,63.452 C118.185,47.411 111.264,32.987 100.245,23.002" id="Fill-3" fill="#0092C7"></path>
            <path d="M100.245,103.903 C111.264,93.917 118.185,79.493 118.185,63.452 C118.185,47.411 111.264,32.987 100.245,23.002" id="Stroke-4" stroke="#0092C7" stroke-width="0.195"></path>
            <path d="M136.88,8.877 C122.781,8.877 109.93,14.224 100.245,23.002 C98.271,24.79 96.43,26.722 94.735,28.78 L105.753,28.78 C107.261,30.61 108.652,32.54 109.914,34.559 L90.575,34.559 C89.415,36.413 88.362,38.342 87.428,40.337 L113.058,40.337 C113.934,42.208 114.71,44.136 115.372,46.116 L85.117,46.116 C84.487,47.998 83.956,49.927 83.532,51.894 L116.957,51.894 C117.761,55.62 118.185,59.486 118.185,63.452 C118.185,69.513 117.196,75.341 115.373,80.788 L85.117,80.788 C85.78,82.767 86.552,84.696 87.428,86.566 L113.058,86.566 C112.123,88.561 111.074,90.491 109.915,92.345 L90.574,92.345 C91.836,94.364 93.227,96.293 94.734,98.124 L105.753,98.124 C104.059,100.181 102.219,102.114 100.245,103.903 C109.93,112.68 122.781,118.028 136.88,118.028 C167.021,118.028 191.456,93.593 191.456,63.452 C191.456,33.311 167.021,8.877 136.88,8.877" id="Fill-5" fill="#D82333"></path>
            <path d="M184.189,93.874 C184.189,92.9 184.979,92.111 185.953,92.111 C186.926,92.111 187.715,92.9 187.715,93.874 C187.715,94.847 186.926,95.637 185.953,95.637 C184.979,95.637 184.189,94.847 184.189,93.874 Z M185.953,95.213 C186.692,95.213 187.292,94.614 187.292,93.874 C187.292,93.134 186.692,92.534 185.953,92.534 C185.212,92.534 184.613,93.134 184.613,93.874 C184.613,94.614 185.212,95.213 185.953,95.213 Z M185.714,94.647 L185.353,94.647 L185.353,93.099 L186.007,93.099 C186.143,93.099 186.284,93.102 186.402,93.178 C186.529,93.262 186.6,93.412 186.6,93.564 C186.6,93.739 186.498,93.903 186.332,93.965 L186.617,94.647 L186.216,94.647 L185.979,94.035 L185.714,94.035 L185.714,94.647 Z M185.714,93.77 L185.914,93.77 C185.988,93.77 186.069,93.776 186.134,93.739 C186.194,93.702 186.225,93.629 186.225,93.561 C186.225,93.502 186.188,93.434 186.137,93.404 C186.075,93.367 185.974,93.375 185.906,93.375 L185.714,93.375 L185.714,93.77 Z" id="Fill-6" fill="#D82333"></path>
            <polyline id="Fill-7" fill="#0C2D5B" points="55.09 78.633 48.229 78.633 52.264 57.362 42.97 78.633 37.231 78.633 36.1 57.484 31.608 78.633 25.367 78.633 30.635 50.964 41.421 50.964 41.541 68.094 49.014 50.964 60.444 50.964 55.09 78.633"></polyline>
            <path d="M130.984,78.357 C129.124,78.868 127.672,79.088 126.102,79.088 C122.627,79.088 120.729,77.345 120.729,74.146 C120.729,73.513 120.8,72.839 120.931,72.127 L121.343,69.925 L121.662,68.145 L124.81,50.962 L131.564,50.962 L130.586,56.129 L134.052,56.129 L133.12,61.601 L129.64,61.601 L127.85,70.989 C127.77,71.401 127.733,71.71 127.733,71.921 C127.733,73.083 128.436,73.588 130.052,73.588 C130.825,73.588 131.424,73.518 131.883,73.377 L130.984,78.357" id="Fill-8" fill="#0C2D5B"></path>
            <path d="M104.017,63.24 C104.017,66.084 105.619,68.042 109.249,69.513 C112.032,70.642 112.463,70.974 112.463,71.996 C112.463,73.396 111.235,74.029 108.519,74.029 C106.467,74.029 104.56,73.752 102.358,73.138 L101.417,78.329 L101.721,78.38 L102.982,78.61 C103.384,78.68 103.984,78.746 104.776,78.807 C106.411,78.933 107.676,78.994 108.565,78.994 C115.817,78.994 119.166,76.619 119.166,71.485 C119.166,68.398 117.766,66.585 114.323,65.222 C111.442,64.083 111.109,63.831 111.109,62.781 C111.109,61.568 112.252,60.945 114.473,60.945 C115.822,60.945 117.663,61.071 119.41,61.282 L120.389,56.073 C118.609,55.83 115.911,55.633 114.341,55.633 C106.654,55.633 103.994,59.09 104.017,63.24" id="Fill-9" fill="#0C2D5B"></path>
            <path d="M77.069,78.633 L71.425,78.633 L71.556,76.3 C69.837,78.146 67.546,79.022 64.431,79.022 C60.749,79.022 58.224,76.516 58.224,72.876 C58.224,67.396 62.613,64.2 70.155,64.2 C70.928,64.2 71.912,64.261 72.924,64.374 C73.135,63.634 73.191,63.315 73.191,62.912 C73.191,61.423 72.006,60.865 68.835,60.865 C66.895,60.865 64.703,61.109 63.189,61.493 L62.248,61.732 L61.639,61.877 L62.581,56.818 C65.967,55.951 68.202,55.623 70.713,55.623 C76.55,55.623 79.637,57.91 79.637,62.224 C79.637,63.334 79.534,64.177 79.084,66.683 L77.665,74.666 L77.426,76.099 L77.252,77.242 L77.135,78.024 L77.069,78.633 Z M72.486,68.609 C71.774,68.534 71.46,68.515 70.968,68.515 C67.117,68.515 65.169,69.667 65.169,71.94 C65.169,73.34 66.12,74.235 67.604,74.235 C70.373,74.235 72.369,71.935 72.486,68.609 Z" id="Fill-10" fill="#0C2D5B"></path>
            <path d="M99.399,78.146 C97.071,78.765 94.818,79.064 92.438,79.06 C84.844,79.055 80.886,75.598 80.886,68.979 C80.886,61.254 85.922,55.567 92.756,55.567 C98.35,55.567 101.919,58.753 101.919,63.746 C101.919,65.404 101.676,67.021 101.085,69.302 L87.58,69.302 C87.529,69.649 87.515,69.803 87.515,70.009 C87.515,72.619 89.529,73.949 93.473,73.949 C95.9,73.949 98.092,73.509 100.528,72.525 L99.399,78.146 Z M96.101,64.758 C96.138,64.29 96.157,63.905 96.157,63.61 C96.157,61.783 94.967,60.711 92.943,60.711 C90.784,60.711 89.238,62.149 88.61,64.744 L96.101,64.758 Z" id="Fill-11" fill="#0C2D5B"></path>
            <path d="M171.898,68.431 C170.882,75.916 165.655,79.237 158.704,79.237 C151.02,79.237 147.915,74.574 147.915,68.864 C147.915,60.888 153.171,55.484 161.29,55.484 C168.337,55.484 172.079,59.929 172.079,65.64 C172.079,67.029 172.077,67.123 171.898,68.431 Z M164.999,65.742 C164.999,63.388 164.044,61.165 161.258,61.165 C157.794,61.165 155.645,65.262 155.645,68.88 C155.645,71.93 157.117,73.979 159.546,73.936 C161.019,73.936 164.158,71.93 164.779,68.428 C164.924,67.611 164.999,66.714 164.999,65.742 Z" id="Fill-12" fill="#0C2D5B"></path>
            <path d="M172.648,75.281 C172.648,74.307 173.437,73.518 174.41,73.518 C175.384,73.518 176.173,74.307 176.173,75.281 C176.173,76.253 175.384,77.042 174.41,77.042 C173.437,77.042 172.648,76.253 172.648,75.281 Z M174.41,76.619 C175.15,76.619 175.749,76.02 175.749,75.281 C175.749,74.54 175.15,73.941 174.41,73.941 C173.67,73.941 173.071,74.54 173.071,75.281 C173.071,76.02 173.67,76.619 174.41,76.619 Z M174.172,76.053 L173.811,76.053 L173.811,74.505 L174.465,74.505 C174.601,74.505 174.742,74.508 174.86,74.584 C174.987,74.669 175.058,74.818 175.058,74.971 C175.058,75.145 174.956,75.309 174.79,75.371 L175.075,76.053 L174.674,76.053 L174.437,75.442 L174.172,75.442 L174.172,76.053 Z M174.172,75.176 L174.372,75.176 C174.446,75.176 174.527,75.182 174.592,75.145 C174.651,75.109 174.683,75.036 174.683,74.968 C174.683,74.909 174.646,74.841 174.595,74.81 C174.533,74.773 174.432,74.782 174.364,74.782 L174.172,74.782 L174.172,75.176 Z" id="Fill-13" fill="#FFFFFE"></path>
            <polyline id="Fill-14" fill="#FFFFFE" points="56.792 77.042 49.999 77.042 54.036 55.772 44.741 77.042 38.548 77.042 37.416 55.894 33.366 77.042 27.201 77.042 32.469 49.373 43.068 49.373 43.629 66.503 51.102 49.373 62.146 49.373 56.792 77.042"></polyline>
            <path d="M132.701,76.766 C130.842,77.277 129.39,77.497 127.82,77.497 C124.344,77.497 122.447,75.754 122.447,72.555 C122.447,71.922 122.518,71.248 122.648,70.536 L123.06,68.334 L123.379,66.554 L126.527,49.372 L133.282,49.372 L132.303,54.539 L135.77,54.539 L134.837,60.01 L131.357,60.01 L129.567,69.398 C129.488,69.81 129.45,70.119 129.45,70.33 C129.45,71.492 130.153,71.998 131.769,71.998 C132.542,71.998 133.142,71.927 133.601,71.787 L132.701,76.766" id="Fill-15" fill="#FFFFFE"></path>
            <path d="M150.158,60.998 L150,60.285 L151.354,56.762 C151.035,56.729 150.906,56.72 150.84,56.702 C150.48,56.622 150.287,56.575 150.254,56.571 C150.049,56.533 149.819,56.514 149.571,56.514 C147.341,56.514 145.734,57.508 143.654,60.168 L144.373,56.164 L137.334,56.164 L133.148,78.637 L139.898,78.637 C140.827,73.476 141.239,70.542 141.782,68.109 C142.687,64.055 145.706,62.213 147.857,62.626 C148.096,62.672 148.305,62.678 148.615,62.798 L149.028,62.953 L150.158,60.998" id="Fill-16" fill="#0C2D5B"></path>
            <path d="M152.539,54.726 C151.971,54.502 151.837,54.501 151.771,54.482 C151.411,54.403 151.219,54.356 151.185,54.351 C150.98,54.314 150.75,54.295 150.502,54.295 C148.272,54.295 146.665,55.288 144.585,57.949 L145.185,54.539 L139.034,54.539 L134.893,77.042 L141.69,77.042 C144.122,63.28 145.165,60.87 148.425,60.87 C148.669,60.87 148.955,60.889 149.283,60.926 L150.078,61.088 L152.539,54.726" id="Fill-17" fill="#FFFFFE"></path>
            <path d="M105.775,61.649 C105.775,64.493 107.377,66.451 111.008,67.922 C113.79,69.051 114.221,69.383 114.221,70.405 C114.221,71.805 112.994,72.438 110.277,72.438 C108.225,72.438 106.318,72.161 104.117,71.548 L103.175,76.738 L103.48,76.79 L104.74,77.019 C105.143,77.089 105.743,77.155 106.534,77.216 C108.169,77.342 109.434,77.403 110.324,77.403 C117.575,77.403 120.924,75.028 120.924,69.894 C120.924,66.807 119.524,64.994 116.081,63.631 C113.2,62.493 112.867,62.24 112.867,61.19 C112.867,59.977 114.011,59.354 116.231,59.354 C117.58,59.354 119.421,59.481 121.169,59.691 L122.147,54.482 C120.367,54.239 117.669,54.042 116.1,54.042 C108.413,54.042 105.752,57.499 105.775,61.649" id="Fill-18" fill="#FFFFFE"></path>
            <path d="M78.873,77.042 L73.229,77.042 L73.36,74.709 C71.641,76.555 69.35,77.431 66.235,77.431 C62.553,77.431 60.028,74.925 60.028,71.285 C60.028,65.805 64.417,62.61 71.96,62.61 C72.732,62.61 73.716,62.671 74.728,62.783 C74.938,62.043 74.995,61.725 74.995,61.321 C74.995,59.832 73.81,59.274 70.638,59.274 C68.699,59.274 66.507,59.518 64.994,59.902 L64.052,60.141 L63.443,60.287 L64.385,55.227 C67.771,54.36 70.006,54.033 72.517,54.033 C78.354,54.033 81.44,56.319 81.44,60.633 C81.44,61.743 81.337,62.586 80.888,65.092 L79.468,73.075 L79.229,74.508 L79.056,75.651 L78.939,76.434 L78.873,77.042 Z M73.918,67.018 C73.206,66.943 72.892,66.924 72.4,66.924 C68.549,66.924 66.601,68.077 66.601,70.349 C66.601,71.749 67.551,72.644 69.036,72.644 C71.805,72.644 73.8,70.344 73.918,67.018 Z" id="Fill-19" fill="#FFFFFE"></path>
            <path d="M101.157,76.555 C98.829,77.174 96.576,77.474 94.196,77.469 C86.603,77.464 82.645,74.007 82.645,67.388 C82.645,59.663 87.68,53.976 94.515,53.976 C100.108,53.976 103.678,57.162 103.678,62.156 C103.678,63.814 103.434,65.43 102.844,67.711 L89.338,67.711 C89.287,68.058 89.273,68.212 89.273,68.418 C89.273,71.028 91.287,72.358 95.231,72.358 C97.658,72.358 99.851,71.918 102.287,70.934 L101.157,76.555 Z M97.539,63.167 C97.576,62.699 97.595,62.315 97.595,62.019 C97.595,60.193 96.405,59.12 94.381,59.12 C92.222,59.12 90.676,60.558 90.048,63.153 L97.539,63.167 Z" id="Fill-20" fill="#FFFFFE"></path>
            <path d="M173.654,66.84 C172.638,74.325 167.411,77.646 160.46,77.646 C152.776,77.646 149.671,72.983 149.671,67.273 C149.671,59.297 154.927,53.894 163.046,53.894 C170.093,53.894 173.835,58.338 173.835,64.049 C173.835,65.438 173.833,65.532 173.654,66.84 Z M166.659,63.961 C166.659,61.607 165.704,59.384 162.918,59.384 C159.454,59.384 157.304,63.481 157.304,67.099 C157.304,70.149 158.777,72.199 161.206,72.155 C162.678,72.155 165.817,70.149 166.439,66.647 C166.583,65.83 166.659,64.933 166.659,63.961 Z" id="Fill-21" fill="#FFFFFE"></path>
        </g>
    </g>
</svg>