<?xml version="1.0" encoding="UTF-8"?>
<svg width="232px" height="148px" viewBox="0 0 232 148" version="1.1" xmlns="http://www.w3.org/2000/svg" xmlns:xlink="http://www.w3.org/1999/xlink">
    <!-- Generator: Sketch 48.2 (47327) - http://www.bohemiancoding.com/sketch -->
    <title>mastercard</title>
    <desc>Created with Sketch.</desc>
    <defs></defs>
    <g id="Page-1" stroke="none" stroke-width="1" fill="none" fill-rule="evenodd">
        <g id="mastercard">
            <polygon id="Fill-1" fill="#102C5C" points="0.412 147.118 231.588 147.118 231.588 0.881 0.412 0.881"></polygon>
            <path d="M136.81,74 C136.81,108.949 108.481,137.277 73.534,137.277 C38.584,137.277 10.253,108.949 10.253,74 C10.253,39.052 38.584,10.721 73.534,10.721 C108.481,10.721 136.81,39.052 136.81,74" id="Fill-2" fill="#D8232A"></path>
            <path d="M158.488,10.721 C142.135,10.721 127.238,16.924 116.006,27.1 C113.722,29.174 111.588,31.414 109.621,33.799 L122.404,33.799 C124.15,35.925 125.76,38.16 127.228,40.501 L104.794,40.501 C103.453,42.652 102.232,44.887 101.149,47.203 L130.873,47.203 C131.889,49.372 132.783,51.606 133.553,53.902 L98.469,53.902 C97.738,56.085 97.123,58.32 96.63,60.6 L135.389,60.6 C136.316,64.92 136.81,69.402 136.81,74 C136.81,81.025 135.666,87.787 133.553,94.102 L98.469,94.102 C99.238,96.397 100.133,98.633 101.147,100.805 L130.873,100.805 C129.787,103.115 128.572,105.352 127.223,107.506 L104.794,107.506 C106.258,109.84 107.871,112.078 109.621,114.201 L122.4,114.201 C120.436,116.588 118.301,118.828 116.009,120.902 C127.24,131.078 142.135,137.277 158.488,137.277 C193.435,137.277 221.766,108.949 221.766,74 C221.766,39.055 193.435,10.721 158.488,10.721" id="Fill-3" fill="#ED9F2D"></path>
            <path d="M213.332,109.273 C213.332,108.145 214.248,107.23 215.377,107.23 C216.508,107.23 217.42,108.145 217.42,109.273 C217.42,110.402 216.508,111.318 215.377,111.318 C214.248,111.318 213.332,110.402 213.332,109.273 Z M215.377,110.828 C216.232,110.828 216.93,110.131 216.93,109.273 C216.93,108.412 216.232,107.721 215.377,107.721 C214.518,107.721 213.822,108.412 213.822,109.273 C213.822,110.131 214.518,110.828 215.377,110.828 Z M215.1,110.17 L214.68,110.17 L214.68,108.377 L215.441,108.377 C215.598,108.377 215.76,108.377 215.9,108.463 C216.043,108.565 216.127,108.736 216.127,108.914 C216.127,109.117 216.01,109.307 215.815,109.379 L216.147,110.17 L215.682,110.17 L215.406,109.461 L215.1,109.461 L215.1,110.17 Z M215.1,109.152 L215.332,109.152 C215.418,109.152 215.51,109.158 215.588,109.117 C215.656,109.072 215.693,108.992 215.693,108.91 C215.693,108.842 215.647,108.762 215.59,108.727 C215.516,108.684 215.4,108.693 215.322,108.693 L215.1,108.693 L215.1,109.152 Z" id="Fill-4" fill="#FFFFFF"></path>
            <path d="M58.756,80.928 C58.036,80.846 57.717,80.82 57.222,80.82 C53.329,80.82 51.36,82.156 51.36,84.795 C51.36,86.42 52.321,87.453 53.821,87.453 C56.62,87.453 58.637,84.789 58.756,80.928 Z M63.753,92.559 C62.837,92.559 58.06,92.559 58.06,92.559 L58.191,89.853 C56.455,91.99 54.138,93.01 50.991,93.01 C47.269,93.01 44.715,90.103 44.715,85.881 C44.715,79.523 49.155,75.816 56.776,75.816 C57.557,75.816 58.554,75.889 59.577,76.018 C59.789,75.156 59.845,74.79 59.845,74.325 C59.845,72.597 58.649,71.949 55.44,71.949 C52.079,71.915 49.307,72.752 48.167,73.126 C48.24,72.692 49.121,67.255 49.121,67.255 C52.542,66.249 54.8,65.873 57.341,65.873 C63.242,65.873 66.367,68.521 66.36,73.527 C66.372,74.87 66.149,76.522 65.803,78.699 C65.207,82.478 63.927,90.586 63.753,92.559 Z" id="Fill-5" fill="#102C5C"></path>
            <polyline id="Fill-6" fill="#102C5C" points="41.84 92.559 34.97 92.559 38.908 67.887 30.119 92.559 25.438 92.559 24.859 68.025 20.723 92.559 14.292 92.559 19.664 60.462 29.543 60.462 30.14 78.428 36.167 60.462 47.154 60.462 41.84 92.559"></polyline>
            <path d="M166.977,80.928 C166.256,80.846 165.941,80.82 165.447,80.82 C161.551,80.82 159.584,82.156 159.584,84.795 C159.584,86.42 160.541,87.453 162.045,87.453 C164.842,87.453 166.859,84.789 166.977,80.928 Z M171.977,92.559 C171.059,92.559 166.285,92.559 166.285,92.559 L166.414,89.853 C164.678,91.99 162.361,93.01 159.217,93.01 C155.49,93.01 152.94,90.103 152.94,85.881 C152.94,79.523 157.381,75.816 165,75.816 C165.779,75.816 166.775,75.889 167.799,76.018 C168.012,75.156 168.066,74.79 168.066,74.325 C168.066,72.597 166.871,71.949 163.662,71.949 C160.301,71.915 157.529,72.752 156.387,73.126 C156.463,72.692 157.346,67.255 157.346,67.255 C160.766,66.249 163.025,65.873 165.562,65.873 C171.467,65.873 174.588,68.521 174.582,73.527 C174.594,74.87 174.373,76.522 174.025,78.699 C173.432,82.478 172.148,90.586 171.977,92.559 Z" id="Fill-7" fill="#102C5C"></path>
            <path d="M94.284,92.162 C92.403,92.754 90.937,93.01 89.348,93.01 C85.836,93.01 83.919,90.992 83.919,87.275 C83.871,86.121 84.424,83.086 84.861,80.318 C85.258,77.879 87.84,62.505 87.84,62.505 L94.668,62.505 L93.872,66.456 L97.996,66.456 L97.065,72.73 L92.925,72.73 C92.132,77.693 91.001,83.877 90.989,84.697 C90.989,86.043 91.707,86.631 93.341,86.631 C94.125,86.631 94.73,86.551 95.193,86.385 L94.284,92.162" id="Fill-8" fill="#102C5C"></path>
            <path d="M115.22,91.951 C112.874,92.668 110.613,93.018 108.214,93.01 C100.569,93 96.585,89.01 96.585,81.365 C96.585,72.443 101.652,65.873 108.536,65.873 C114.165,65.873 117.762,69.551 117.762,75.316 C117.762,77.234 117.516,79.102 116.919,81.738 L103.32,81.738 C102.861,85.525 105.283,87.102 109.258,87.102 C111.7,87.102 113.906,86.598 116.356,85.461 L115.22,91.951 Z M111.381,76.477 C111.421,75.932 112.105,71.817 108.203,71.817 C106.029,71.817 104.473,73.475 103.842,76.477 L111.381,76.477 Z" id="Fill-9" fill="#102C5C"></path>
            <path d="M67.874,74.71 C67.874,78.008 69.474,80.285 73.104,81.996 C75.885,83.305 76.318,83.691 76.318,84.877 C76.318,86.502 75.089,87.24 72.373,87.24 C70.322,87.24 68.415,86.918 66.216,86.207 C66.216,86.207 65.316,91.963 65.273,92.238 C66.833,92.576 68.226,92.891 72.421,93.01 C79.669,93.01 83.018,90.25 83.018,84.285 C83.018,80.699 81.618,78.594 78.175,77.01 C75.296,75.69 74.963,75.393 74.963,74.175 C74.963,72.764 76.107,72.043 78.326,72.043 C79.674,72.043 81.516,72.187 83.263,72.434 L84.24,66.38 C82.461,66.097 79.764,65.873 78.194,65.873 C70.509,65.873 67.849,69.886 67.874,74.71" id="Fill-10" fill="#102C5C"></path>
            <path d="M148.631,66.562 C150.539,66.562 152.32,67.058 154.77,68.294 L155.895,61.329 C154.885,60.933 151.344,58.612 148.344,58.612 C143.748,58.612 139.857,60.896 137.127,64.657 C133.139,63.337 131.498,66.005 129.49,68.665 L127.705,69.081 C127.84,68.206 127.963,67.336 127.924,66.456 L121.611,66.456 C120.752,74.537 119.225,82.719 118.029,90.803 L117.717,92.559 L124.59,92.559 C125.736,85.105 126.363,80.334 126.746,77.102 L129.334,75.668 C129.723,74.227 130.93,73.743 133.357,73.802 C133.041,75.504 132.869,77.297 132.869,79.152 C132.869,87.693 137.482,93.01 144.875,93.01 C146.779,93.01 148.416,92.76 150.949,92.07 L152.152,84.756 C149.875,85.875 148.01,86.402 146.318,86.402 C142.324,86.402 139.908,83.453 139.908,78.582 C139.908,71.513 143.5,66.562 148.631,66.562" id="Fill-11" fill="#102C5C"></path>
            <path d="M206.793,60.462 L205.266,69.735 C203.391,67.264 201.373,65.474 198.709,65.474 C195.242,65.474 192.088,68.102 190.022,71.972 C187.144,71.375 184.172,70.36 184.172,70.36 L184.17,70.385 C184.398,68.222 184.496,66.906 184.473,66.456 L178.162,66.456 C177.305,74.537 175.775,82.719 174.582,90.803 L174.266,92.559 L181.141,92.559 C182.068,86.535 182.777,81.527 183.301,77.561 C185.65,75.438 186.826,73.59 189.195,73.71 C188.145,76.252 187.531,79.178 187.531,82.18 C187.531,88.703 190.83,93.01 195.826,93.01 C198.344,93.01 200.275,92.141 202.16,90.129 L201.836,92.557 L208.336,92.557 L213.568,60.462 L206.793,60.462 Z M198.201,86.529 C195.863,86.529 194.68,84.795 194.68,81.383 C194.68,76.252 196.893,72.615 200.008,72.615 C202.369,72.615 203.648,74.411 203.648,77.727 C203.648,82.902 201.398,86.529 198.201,86.529 Z" id="Fill-12" fill="#102C5C"></path>
            <polyline id="Fill-13" fill="#FFFFFF" points="43.817 90.654 36.948 90.654 40.884 65.982 32.097 90.654 27.415 90.654 26.836 66.125 22.7 90.654 16.27 90.654 21.641 58.56 31.52 58.56 31.795 78.428 38.461 58.56 49.13 58.56 43.817 90.654"></polyline>
            <path d="M60.734,79.027 C60.014,78.943 59.696,78.92 59.201,78.92 C55.307,78.92 53.336,80.254 53.336,82.891 C53.336,84.514 54.298,85.553 55.799,85.553 C58.598,85.553 60.615,82.889 60.734,79.027 Z M65.73,90.654 C64.815,90.654 60.039,90.654 60.039,90.654 L60.169,87.951 C58.433,90.086 56.116,91.107 52.969,91.107 C49.246,91.107 46.694,88.197 46.694,83.975 C46.694,77.617 51.133,73.915 58.754,73.915 C59.534,73.915 60.532,73.986 61.554,74.118 C61.767,73.254 61.823,72.887 61.823,72.419 C61.823,70.693 60.626,70.05 57.418,70.05 C54.055,70.01 51.285,70.847 50.145,71.22 C50.217,70.788 51.098,65.351 51.098,65.351 C54.521,64.347 56.779,63.968 59.32,63.968 C65.219,63.968 68.343,66.619 68.337,71.623 C68.349,72.964 68.127,74.623 67.782,76.795 C67.185,80.572 65.905,88.684 65.73,90.654 Z" id="Fill-14" fill="#FFFFFF"></path>
            <path d="M157.871,59.424 L156.746,66.389 C154.293,65.156 152.516,64.657 150.609,64.657 C145.48,64.657 141.883,69.614 141.883,76.684 C141.883,81.555 144.301,84.498 148.295,84.498 C149.986,84.498 151.855,83.975 154.129,82.852 L152.922,90.166 C150.393,90.856 148.756,91.107 146.852,91.107 C139.455,91.107 134.848,85.789 134.848,77.25 C134.848,65.776 141.217,57.757 150.32,57.757 C153.32,57.757 156.863,59.028 157.871,59.424" id="Fill-15" fill="#FFFFFF"></path>
            <path d="M168.953,79.027 C168.236,78.943 167.918,78.92 167.424,78.92 C163.531,78.92 161.56,80.254 161.56,82.891 C161.56,84.514 162.522,85.553 164.022,85.553 C166.818,85.553 168.838,82.889 168.953,79.027 Z M173.953,90.654 C173.039,90.654 168.262,90.654 168.262,90.654 L168.391,87.951 C166.654,90.086 164.338,91.107 161.193,91.107 C157.467,91.107 154.918,88.197 154.918,83.975 C154.918,77.617 159.354,73.915 166.977,73.915 C167.756,73.915 168.752,73.986 169.773,74.118 C169.986,73.254 170.043,72.887 170.043,72.419 C170.043,70.693 168.85,70.05 165.639,70.05 C162.279,70.01 159.51,70.847 158.367,71.22 C158.44,70.788 159.32,65.351 159.32,65.351 C162.744,64.347 165,63.968 167.541,63.968 C173.44,63.968 176.566,66.619 176.559,71.623 C176.572,72.964 176.35,74.623 176.004,76.795 C175.408,80.572 174.129,88.684 173.953,90.654 Z" id="Fill-16" fill="#FFFFFF"></path>
            <path d="M96.26,90.258 C94.381,90.85 92.915,91.107 91.326,91.107 C87.814,91.107 85.896,89.088 85.896,85.375 C85.848,84.217 86.403,81.188 86.839,78.416 C87.235,75.975 89.818,60.603 89.818,60.603 L96.646,60.603 L95.848,64.553 L99.353,64.553 L98.42,70.825 L94.903,70.825 C94.11,75.793 92.978,81.973 92.965,82.793 C92.965,84.143 93.685,84.727 95.319,84.727 C96.101,84.727 96.707,84.65 97.171,84.481 L96.26,90.258" id="Fill-17" fill="#FFFFFF"></path>
            <path d="M117.199,90.051 C114.853,90.769 112.586,91.109 110.191,91.107 C102.545,91.102 98.562,87.107 98.562,79.463 C98.562,70.538 103.63,63.968 110.509,63.968 C116.144,63.968 119.738,67.646 119.738,73.419 C119.738,75.332 119.488,77.199 118.898,79.836 L105.299,79.836 C104.837,83.623 107.262,85.203 111.233,85.203 C113.676,85.203 115.882,84.697 118.336,83.557 L117.199,90.051 Z M113.361,74.572 C113.398,74.026 114.084,69.913 110.182,69.913 C108.008,69.913 106.453,71.574 105.819,74.572 L113.361,74.572 Z" id="Fill-18" fill="#FFFFFF"></path>
            <path d="M69.85,72.804 C69.85,76.109 71.452,78.381 75.083,80.094 C77.864,81.402 78.294,81.789 78.294,82.975 C78.294,84.602 77.068,85.336 74.349,85.336 C72.299,85.336 70.393,85.018 68.193,84.309 C68.193,84.309 67.293,90.06 67.25,90.332 C68.811,90.674 70.204,90.986 74.398,91.107 C81.648,91.107 84.996,88.348 84.996,82.383 C84.996,78.795 83.594,76.691 80.153,75.111 C77.273,73.786 76.942,73.493 76.942,72.273 C76.942,70.862 78.083,70.136 80.304,70.136 C81.651,70.136 83.494,70.286 85.24,70.532 L86.218,64.479 C84.439,64.198 81.743,63.968 80.171,63.968 C72.486,63.968 69.827,67.982 69.85,72.804" id="Fill-19" fill="#FFFFFF"></path>
            <path d="M210.312,90.654 L203.815,90.654 L204.137,88.225 C202.252,90.238 200.32,91.107 197.803,91.107 C192.81,91.107 189.508,86.805 189.508,80.275 C189.508,71.593 194.629,64.275 200.685,64.275 C203.35,64.275 205.367,65.363 207.246,67.835 L208.77,58.56 L215.545,58.56 L210.312,90.654 Z M200.178,84.623 C203.379,84.623 205.625,80.998 205.625,75.828 C205.625,72.511 204.346,70.71 201.984,70.71 C198.869,70.71 196.656,74.347 196.656,79.48 C196.656,82.897 197.842,84.623 200.178,84.623 Z" id="Fill-20" fill="#FFFFFF"></path>
            <path d="M180.141,64.553 C179.281,72.632 177.754,80.815 176.559,88.898 L176.246,90.654 L183.117,90.654 C185.574,74.692 186.166,71.577 190.022,71.966 C190.635,68.699 191.777,65.838 192.629,64.396 C189.752,63.796 188.145,65.422 186.039,68.512 C186.207,67.175 186.51,65.878 186.453,64.553 L180.141,64.553" id="Fill-21" fill="#FFFFFF"></path>
            <path d="M123.592,64.553 C122.728,72.632 121.199,80.815 120.006,88.898 L119.693,90.654 L126.566,90.654 C129.025,74.692 129.615,71.577 133.465,71.966 C134.082,68.699 135.227,65.838 136.076,64.396 C133.201,63.796 131.592,65.422 129.49,68.512 C129.656,67.175 129.961,65.878 129.9,64.553 L123.592,64.553" id="Fill-22" fill="#FFFFFF"></path>
            <path d="M213.33,88.611 C213.33,87.478 214.248,86.566 215.371,86.566 C216.502,86.566 217.414,87.478 217.414,88.611 C217.414,89.736 216.502,90.654 215.371,90.654 C214.248,90.654 213.33,89.736 213.33,88.611 Z M215.371,90.164 C216.232,90.164 216.928,89.467 216.928,88.611 C216.928,87.754 216.232,87.057 215.371,87.057 C214.514,87.057 213.82,87.754 213.82,88.611 C213.82,89.467 214.514,90.164 215.371,90.164 Z M215.096,89.504 L214.678,89.504 L214.678,87.711 L215.437,87.711 C215.596,87.711 215.756,87.717 215.895,87.803 C216.043,87.9 216.123,88.072 216.123,88.25 C216.123,88.453 216.006,88.643 215.815,88.715 L216.145,89.504 L215.68,89.504 L215.404,88.795 L215.096,88.795 L215.096,89.504 Z M215.096,88.488 L215.328,88.488 C215.412,88.488 215.51,88.496 215.584,88.453 C215.652,88.41 215.687,88.324 215.687,88.246 C215.687,88.178 215.647,88.102 215.588,88.06 C215.516,88.02 215.398,88.031 215.32,88.031 L215.096,88.031 L215.096,88.488 Z" id="Fill-23" fill="#FFFFFF"></path>
        </g>
    </g>
</svg>