<?xml version="1.0" encoding="UTF-8"?>
<svg width="147px" height="94px" viewBox="0 0 147 94" version="1.1" xmlns="http://www.w3.org/2000/svg" xmlns:xlink="http://www.w3.org/1999/xlink">
    <!-- Generator: Sketch 48.2 (47327) - http://www.bohemiancoding.com/sketch -->
    <title>Visa_Electron_Point_of_Sale</title>
    <desc>Created with Sketch.</desc>
    <defs>
        <polygon id="path-1" points="0.06 0.699 146.879 0.699 146.879 94 0.06 94"></polygon>
    </defs>
    <g id="Page-1" stroke="none" stroke-width="1" fill="none" fill-rule="evenodd">
        <g id="Visa_Electron_Point_of_Sale">
            <g id="Group-3">
                <mask id="mask-2" fill="white">
                    <use xlink:href="#path-1"></use>
                </mask>
                <g id="Clip-2"></g>
                <polygon id="Fill-1" fill="#FFFFFE" mask="url(#mask-2)" points="0.06 94 146.879 94 146.879 0.699 0.06 0.699"></polygon>
            </g>
            <polygon id="Fill-4" fill="#F1AD2B" points="2.446 91.57 144.428 91.57 144.428 78.839 2.446 78.839"></polygon>
            <polygon id="Fill-5" fill="#182E66" points="2.446 15.875 144.428 15.875 144.428 3.146 2.446 3.146"></polygon>
            <path d="M70.615,27.369 L63.5,60.632 L54.894,60.632 L62.009,27.369 L70.615,27.369 Z M106.818,48.847 L111.35,36.356 L113.953,48.847 L106.818,48.847 Z M116.425,60.632 L124.382,60.632 L117.43,27.369 L110.089,27.369 C108.433,27.369 107.042,28.329 106.424,29.807 L93.511,60.632 L102.548,60.632 L104.341,55.664 L115.382,55.664 L116.425,60.632 Z M93.96,49.772 C93.996,40.994 81.823,40.507 81.903,36.585 C81.932,35.393 83.068,34.124 85.554,33.799 C86.785,33.64 90.187,33.513 94.04,35.289 L95.548,28.231 C93.477,27.482 90.813,26.762 87.499,26.762 C78.992,26.762 73.007,31.28 72.959,37.756 C72.903,42.545 77.234,45.215 80.49,46.81 C83.844,48.44 84.969,49.487 84.954,50.943 C84.93,53.175 82.275,54.163 79.807,54.199 C75.479,54.268 72.969,53.03 70.968,52.098 L69.406,59.389 C71.42,60.312 75.131,61.114 78.974,61.154 C88.018,61.154 93.933,56.688 93.96,49.772 Z M58.318,27.369 L44.375,60.632 L35.278,60.632 L28.416,34.085 C28,32.454 27.639,31.853 26.373,31.164 C24.303,30.04 20.886,28.989 17.882,28.334 L18.085,27.369 L32.731,27.369 C34.594,27.369 36.273,28.61 36.699,30.758 L40.325,50.008 L49.276,27.369 L58.318,27.369 Z" id="Fill-6" fill="#182E66"></path>
            <polyline id="Fill-7" fill="#182E66" points="81.629 69.788 78.133 69.788 78.133 73.043 82.044 73.043 82.044 74.021 76.954 74.021 76.954 64.992 81.844 64.992 81.844 65.971 78.133 65.971 78.133 68.823 81.629 68.823 81.629 69.788"></polyline>
            <polygon id="Fill-8" fill="#182E66" points="83.85 74.021 85.029 74.021 85.029 64.51 83.85 64.51"></polygon>
            <path d="M91.457,70.15 C91.471,69.413 91.149,68.248 89.823,68.248 C88.618,68.248 88.108,69.333 88.015,70.15 L91.457,70.15 Z M88.001,70.994 C88.028,72.588 89.033,73.244 90.225,73.244 C91.069,73.244 91.591,73.097 92.02,72.909 L92.234,73.753 C91.819,73.941 91.096,74.168 90.064,74.168 C88.069,74.168 86.877,72.842 86.877,70.887 C86.877,68.931 88.028,67.404 89.917,67.404 C92.047,67.404 92.596,69.252 92.596,70.444 C92.596,70.685 92.583,70.859 92.556,70.994 L88.001,70.994 Z" id="Fill-9" fill="#182E66"></path>
            <path d="M99.01,73.793 C98.702,73.941 98.018,74.168 97.148,74.168 C95.192,74.168 93.92,72.842 93.92,70.859 C93.92,68.864 95.286,67.404 97.402,67.404 C98.099,67.404 98.715,67.578 99.036,67.752 L98.769,68.649 C98.487,68.502 98.045,68.341 97.402,68.341 C95.915,68.341 95.112,69.453 95.112,70.793 C95.112,72.293 96.076,73.217 97.362,73.217 C98.031,73.217 98.474,73.057 98.809,72.909 L99.01,73.793" id="Fill-10" fill="#182E66"></path>
            <path d="M102.316,65.984 L102.316,67.538 L104.003,67.538 L104.003,68.435 L102.316,68.435 L102.316,71.931 C102.316,72.735 102.544,73.19 103.2,73.19 C103.521,73.19 103.709,73.164 103.883,73.11 L103.937,74.008 C103.709,74.088 103.347,74.168 102.892,74.168 C102.343,74.168 101.9,73.981 101.619,73.673 C101.298,73.311 101.164,72.735 101.164,71.972 L101.164,68.435 L100.159,68.435 L100.159,67.538 L101.164,67.538 L101.164,66.332 L102.316,65.984" id="Fill-11" fill="#182E66"></path>
            <path d="M105.65,69.561 C105.65,68.797 105.636,68.141 105.596,67.538 L106.627,67.538 L106.681,68.823 L106.721,68.823 C107.016,67.953 107.739,67.404 108.529,67.404 C108.65,67.404 108.744,67.417 108.851,67.43 L108.851,68.543 C108.73,68.515 108.61,68.515 108.449,68.515 C107.619,68.515 107.029,69.132 106.868,70.016 C106.842,70.177 106.828,70.377 106.828,70.565 L106.828,74.021 L105.65,74.021 L105.65,69.561" id="Fill-12" fill="#182E66"></path>
            <path d="M110.965,70.793 C110.965,72.213 111.769,73.285 112.921,73.285 C114.047,73.285 114.89,72.226 114.89,70.766 C114.89,69.668 114.341,68.287 112.948,68.287 C111.568,68.287 110.965,69.574 110.965,70.793 Z M116.096,70.726 C116.096,73.123 114.421,74.168 112.867,74.168 C111.126,74.168 109.76,72.882 109.76,70.833 C109.76,68.676 111.193,67.404 112.975,67.404 C114.837,67.404 116.096,68.756 116.096,70.726 Z" id="Fill-13" fill="#182E66"></path>
            <path d="M117.902,69.292 C117.902,68.61 117.888,68.074 117.848,67.538 L118.893,67.538 L118.96,68.61 L118.987,68.61 C119.309,68.007 120.058,67.404 121.13,67.404 C122.027,67.404 123.421,67.94 123.421,70.163 L123.421,74.021 L122.242,74.021 L122.242,70.284 C122.242,69.239 121.853,68.368 120.742,68.368 C119.978,68.368 119.375,68.918 119.161,69.574 C119.108,69.721 119.081,69.922 119.081,70.123 L119.081,74.021 L117.902,74.021 L117.902,69.292" id="Fill-14" fill="#182E66"></path>
        </g>
    </g>
</svg>