<?xml version="1.0" encoding="UTF-8"?>
<svg width="147px" height="94px" viewBox="0 0 147 94" version="1.1" xmlns="http://www.w3.org/2000/svg" xmlns:xlink="http://www.w3.org/1999/xlink">
    <!-- Generator: Sketch 48.2 (47327) - http://www.bohemiancoding.com/sketch -->
    <title>Visa_online</title>
    <desc>Created with Sketch.</desc>
    <defs>
        <polygon id="path-1" points="0.06 0.697 146.88 0.697 146.88 94 0.06 94"></polygon>
    </defs>
    <g id="Page-1" stroke="none" stroke-width="1" fill="none" fill-rule="evenodd">
        <g id="Visa_online">
            <g id="Group-3">
                <mask id="mask-2" fill="white">
                    <use xlink:href="#path-1"></use>
                </mask>
                <g id="Clip-2"></g>
                <polygon id="Fill-1" fill="#FFFFFE" mask="url(#mask-2)" points="0.06 94 146.88 94 146.88 0.697 0.06 0.697"></polygon>
            </g>
            <polygon id="Fill-4" fill="#F1AD2B" points="2.446 91.568 144.432 91.568 144.432 78.839 2.446 78.839"></polygon>
            <polygon id="Fill-5" fill="#182E66" points="2.446 15.874 144.432 15.874 144.432 3.144 2.446 3.144"></polygon>
            <path d="M72.214,29.899 L64.73,64.888 L55.678,64.888 L63.163,29.899 L72.214,29.899 Z M110.297,52.492 L115.062,39.352 L117.803,52.492 L110.297,52.492 Z M120.401,64.888 L128.771,64.888 L121.458,29.899 L113.737,29.899 C111.997,29.899 110.531,30.908 109.881,32.464 L96.298,64.888 L105.805,64.888 L107.692,59.663 L119.304,59.663 L120.401,64.888 Z M96.77,53.465 C96.81,44.231 84.005,43.719 84.09,39.593 C84.118,38.34 85.313,37.004 87.929,36.663 C89.225,36.496 92.801,36.361 96.856,38.229 L98.442,30.806 C96.264,30.018 93.462,29.26 89.975,29.26 C81.026,29.26 74.731,34.013 74.68,40.825 C74.623,45.863 79.177,48.671 82.601,50.349 C86.132,52.063 87.315,53.164 87.298,54.696 C87.273,57.043 84.482,58.082 81.884,58.121 C77.33,58.193 74.691,56.891 72.587,55.91 L70.944,63.581 C73.063,64.55 76.966,65.394 81.008,65.437 C90.521,65.437 96.742,60.74 96.77,53.465 Z M59.28,29.899 L44.613,64.888 L35.045,64.888 L27.827,36.964 C27.39,35.247 27.008,34.616 25.678,33.89 C23.501,32.708 19.907,31.602 16.748,30.914 L16.961,29.899 L32.365,29.899 C34.327,29.899 36.092,31.204 36.541,33.464 L40.353,53.713 L49.77,29.899 L59.28,29.899 Z" id="Fill-6" fill="#182E66"></path>
        </g>
    </g>
</svg>